<?xml version="1.0" encoding="UTF-8"?>
<svg xmlns="http://www.w3.org/2000/svg" xmlns:xlink="http://www.w3.org/1999/xlink" viewBox="0 0 75 75">
  <defs>
    <style>
      .cls-1 {
        fill: none;
        stroke: #36393a;
        stroke-width: .55px;
      }

      .cls-2 {
        filter: url(#drop-shadow-3);
      }

      .cls-3 {
        fill: url(#linear-gradient);
        stroke: #fff;
        stroke-miterlimit: 10;
      }
    </style>
    <filter id="drop-shadow-3" x="3.23" y="3.18" width="69" height="69" filterUnits="userSpaceOnUse">
      <feOffset dx="0" dy="0"/>
      <feGaussianBlur result="blur" stdDeviation="2"/>
      <feFlood flood-color="#231f20" flood-opacity=".1"/>
      <feComposite in2="blur" operator="in"/>
      <feComposite in="SourceGraphic"/>
    </filter>
    <linearGradient id="linear-gradient" x1="51.84" y1="56.98" x2="18.4" y2="11.55" gradientUnits="userSpaceOnUse">
      <stop offset="0" stop-color="#fff" stop-opacity=".7"/>
      <stop offset="1" stop-color="#fff"/>
    </linearGradient>
  </defs>
  <g id="circles">
    <g class="cls-2">
      <circle class="cls-3" cx="37.5" cy="37.5" r="27.43"/>
    </g>
  </g>
  <g id="lineart">
    <path class="cls-1" d="M45.95,39.54c-.35-.79-.84-1.45-1.48-1.99-.64-.54-1.38-.99-2.23-1.35-.85-.36-1.78-.68-2.79-.98-.91-.3-1.73-.57-2.47-.83-.74-.26-1.32-.58-1.74-.98-.42-.39-.63-.94-.63-1.62,0-.59.17-1.07.52-1.46.34-.38.82-.66,1.44-.83.62-.17,1.29-.25,2.03-.22.84.03,1.63.17,2.4.44.76.27,1.5.61,2.2,1.01s1.33.84,1.9,1.31v-5.75c-.74-.37-1.46-.67-2.18-.91-.71-.23-1.46-.41-2.23-.53-.29-.05-.62-.08-.94-.1v-2.74h-4.21v2.87c-.63.11-1.23.24-1.77.44-1.21.43-2.19,1.01-2.97,1.75-.77.74-1.35,1.57-1.72,2.51-.37.94-.55,1.91-.55,2.91,0,1.11.16,2.04.48,2.8s.75,1.41,1.29,1.94c.54.53,1.16.97,1.85,1.31.69.34,1.39.63,2.1.85,1.13.39,2.15.74,3.06,1.05.91.31,1.64.67,2.19,1.07s.83.94.83,1.6c0,.89-.3,1.54-.9,1.97-.6.43-1.47.65-2.6.65-1.28,0-2.63-.23-4.06-.7-1.43-.47-2.71-1.16-3.84-2.07v5.68c.81.39,1.65.71,2.51.96.86.24,1.8.43,2.8.55.41.05.85.08,1.29.11v3.17h4.21v-3.28c1-.17,1.91-.45,2.69-.87,1.3-.7,2.3-1.66,2.99-2.88.69-1.22,1.03-2.56,1.03-4.04,0-1.11-.17-2.05-.52-2.84Z"/>
  </g>
</svg>