<?xml version="1.0" encoding="UTF-8"?>
<svg xmlns="http://www.w3.org/2000/svg" xmlns:xlink="http://www.w3.org/1999/xlink" viewBox="0 0 75 75">
  <defs>
    <style>
      .cls-1 {
        fill: #36393a;
      }

      .cls-2 {
        fill: url(#linear-gradient);
        stroke: #fff;
        stroke-miterlimit: 10;
      }

      .cls-3 {
        filter: url(#drop-shadow-33);
      }
    </style>
    <filter id="drop-shadow-33" x="3.36" y="3.5" width="69" height="68" filterUnits="userSpaceOnUse">
      <feOffset dx="0" dy="0"/>
      <feGaussianBlur result="blur" stdDeviation="2"/>
      <feFlood flood-color="#231f20" flood-opacity=".1"/>
      <feComposite in2="blur" operator="in"/>
      <feComposite in="SourceGraphic"/>
    </filter>
    <linearGradient id="linear-gradient" x1="51.84" y1="56.98" x2="18.4" y2="11.55" gradientUnits="userSpaceOnUse">
      <stop offset="0" stop-color="#fff" stop-opacity=".7"/>
      <stop offset="1" stop-color="#fff"/>
    </linearGradient>
  </defs>
  <g id="circles">
    <g class="cls-3">
      <circle class="cls-2" cx="37.5" cy="37.5" r="27.43"/>
    </g>
  </g>
  <g id="lineart">
    <g>
      <g>
        <path class="cls-1" d="M47.04,35.39c-.06,0-.11,0-.17-.03-.15-.05-.33-.11-.53-.18-1.54-.54-4.4-1.53-8.37-1.53s-7.15,1.06-8.66,1.57l-.4.13c-.17.06-.35.03-.49-.08-.14-.1-.23-.27-.23-.45v-7.76c0-.25.17-.47.41-.53.99-.25,6.1-1.5,9.28-1.5s8.29,1.25,9.28,1.5c.24.06.41.28.41.53v7.77c0,.18-.09.35-.23.45-.09.07-.2.1-.31.1ZM37.97,33.14c4.05,0,6.97,1.02,8.54,1.56.2.07.37.13.52.18l.05-.05v-7.77c-1.02-.29-6.06-1.53-9.19-1.53s-8.18,1.24-9.16,1.48l-.03,7.81.06.05.4-.13c1.53-.52,4.71-1.59,8.82-1.59Z"/>
        <path class="cls-1" d="M47.32,30.68l-.22-.45,9.24-4.42-18.41-6.69-19.26,6.63,9.7,4.47-.21.45-9.96-4.59c-.14-.06-.23-.21-.22-.37,0-.16.11-.29.26-.34l19.58-6.74c.09-.03.18-.03.26,0l18.71,6.8c.15.05.24.19.25.34s-.08.3-.22.36l-9.49,4.54ZM18.4,25.63h0s0,0,0,0ZM37.89,19.11s0,0,0,0h0Z"/>
        <rect class="cls-1" x="54.93" y="26.77" width=".5" height="4.26"/>
        <circle class="cls-1" cx="55.18" cy="31.43" r="1.33"/>
      </g>
      <path class="cls-1" d="M37.46,37.31c-4.22,0-7.61-1.1-8.78-2.19l.34-.37c1.1,1.02,4.35,2.06,8.44,2.06s8.25-1.07,9.53-2.07l.31.39c-1.34,1.05-5.48,2.18-9.84,2.18Z"/>
    </g>
    <path class="cls-1" d="M26.5,44.75c-1.24,0-2.25-1.01-2.25-2.25s1.01-2.25,2.25-2.25,2.25,1.01,2.25,2.25-1.01,2.25-2.25,2.25ZM26.5,40.75c-.96,0-1.75.79-1.75,1.75s.79,1.75,1.75,1.75,1.75-.79,1.75-1.75-.79-1.75-1.75-1.75Z"/>
    <path class="cls-1" d="M26.5,50.75c-1.24,0-2.25-1.01-2.25-2.25s1.01-2.25,2.25-2.25,2.25,1.01,2.25,2.25-1.01,2.25-2.25,2.25ZM26.5,46.75c-.96,0-1.75.79-1.75,1.75s.79,1.75,1.75,1.75,1.75-.79,1.75-1.75-.79-1.75-1.75-1.75Z"/>
    <path class="cls-1" d="M26.5,56.75c-1.24,0-2.25-1.01-2.25-2.25s1.01-2.25,2.25-2.25,2.25,1.01,2.25,2.25-1.01,2.25-2.25,2.25ZM26.5,52.75c-.96,0-1.75.79-1.75,1.75s.79,1.75,1.75,1.75,1.75-.79,1.75-1.75-.79-1.75-1.75-1.75Z"/>
    <path class="cls-1" d="M50.5,42.75h-19c-.14,0-.25-.11-.25-.25s.11-.25.25-.25h19c.14,0,.25.11.25.25s-.11.25-.25.25Z"/>
    <path class="cls-1" d="M50.5,48.75h-19c-.14,0-.25-.11-.25-.25s.11-.25.25-.25h19c.14,0,.25.11.25.25s-.11.25-.25.25Z"/>
    <path class="cls-1" d="M50.5,54.75h-19c-.14,0-.25-.11-.25-.25s.11-.25.25-.25h19c.14,0,.25.11.25.25s-.11.25-.25.25Z"/>
  </g>
</svg>